<svg id="Layer_1" data-name="Layer 1" xmlns="http://www.w3.org/2000/svg" viewBox="0 0 487.16 463.5"><title>favicon</title><path d="M44.77,255.73,238.9,61.6A22.08,22.08,0,0,0,245.37,46a21.82,21.82,0,0,0-24.16-21.62C127.83,34,50.87,98.79,23.34,185.59a82.55,82.55,0,0,0,21.43,70.14Z" transform="translate(-12.42 -24.25)" style="fill:#ffd64a"/><path d="M23.36,185.43c-.08.27-.14.55-.23.82l.21-.65C23.35,185.54,23.35,185.48,23.36,185.43Z" transform="translate(-12.42 -24.25)" style="fill:#f68c3e"/><polygon points="32.35 231.49 32.35 231.49 32.01 231.83 32.35 231.49" style="fill:#f68c3e"/><path d="M44.42,256.08l.35-.35a82.55,82.55,0,0,1-21.43-70.14l-.21.65a232.34,232.34,0,0,0-7.66,32.39c-.11.66-.23,1.3-.33,2q-1.21,7.89-1.87,16c-.08,1-.14,2-.21,3-.39,5.47-.64,11-.64,16.54q0,5.85.29,11.62c.06,1.28.19,2.55.27,3.82.17,2.56.33,5.12.58,7.65.15,1.51.36,3,.54,4.51.27,2.28.53,4.55.87,6.81.24,1.59.52,3.15.79,4.73.36,2.15.72,4.29,1.15,6.42.32,1.61.68,3.2,1,4.79.45,2.06.91,4.12,1.42,6.16.4,1.61.84,3.21,1.27,4.81.54,2,1.1,4,1.69,6,.48,1.6,1,3.18,1.5,4.76q.95,2.91,2,5.8.83,2.35,1.72,4.67,1.08,2.85,2.23,5.65.94,2.3,1.93,4.59c.8,1.85,1.64,3.68,2.49,5.51.7,1.49,1.39,3,2.12,4.46.9,1.82,1.83,3.62,2.78,5.42.75,1.43,1.5,2.87,2.28,4.28,1,1.81,2,3.59,3.09,5.37.8,1.35,1.58,2.72,2.4,4.05,1.11,1.81,2.27,3.58,3.43,5.36.83,1.26,1.63,2.54,2.48,3.79,1.26,1.85,2.57,3.65,3.88,5.46.82,1.13,1.61,2.27,2.44,3.38,1.54,2,3.14,4,4.74,6,.66.83,1.3,1.68,2,2.49q3.45,4.18,7.1,8.19c.45.5.93,1,1.38,1.46,2,2.16,4,4.31,6.09,6.39.91.91,1.86,1.79,2.79,2.69,1.66,1.62,3.33,3.24,5,4.8,1.09,1,2.21,1.95,3.31,2.92,1.61,1.42,3.21,2.84,4.86,4.21,1.19,1,2.41,1.94,3.62,2.91,1.62,1.29,3.23,2.59,4.88,3.84,1.27,1,2.57,1.9,3.87,2.83,1.64,1.19,3.27,2.37,4.94,3.51,1.34.92,2.7,1.81,4.06,2.7,1.68,1.1,3.37,2.2,5.08,3.26,1.39.86,2.79,1.7,4.19,2.53q2.59,1.53,5.22,3,2.16,1.2,4.35,2.36,2.65,1.4,5.34,2.74c1.48.74,3,1.46,4.47,2.17,1.83.86,3.67,1.68,5.52,2.5,1.51.66,3,1.32,4.54,2,1.9.78,3.81,1.53,5.73,2.26,1.52.58,3,1.17,4.56,1.72,2,.71,4,1.37,6,2,1.51.5,3,1,4.54,1.48,2.09.64,4.21,1.22,6.33,1.8,1.47.4,2.92.83,4.4,1.21,2.29.58,4.61,1.09,6.93,1.6,1.34.3,2.67.63,4,.9,2.84.57,5.71,1.06,8.59,1.53.85.14,1.69.32,2.54.45q4.65.71,9.36,1.23c9.65,1.07,19.64-3.19,23.79-12a21.9,21.9,0,0,0-4.21-25Z" transform="translate(-12.42 -24.25)" style="fill:#f68c3e"/><path d="M467.23,255.73,273.1,61.6A22.08,22.08,0,0,1,266.63,46a21.82,21.82,0,0,1,24.16-21.62C384.17,34,461.13,98.79,488.66,185.59a82.55,82.55,0,0,1-21.43,70.14Z" transform="translate(-12.42 -24.25)" style="fill:#30b561"/><path d="M488.64,185.43c.08.27.14.55.23.82l-.21-.65C488.65,185.54,488.65,185.48,488.64,185.43Z" transform="translate(-12.42 -24.25)" style="fill:#f68c3e"/><polygon points="454.81 231.49 454.81 231.49 455.16 231.83 454.81 231.49" style="fill:#f68c3e"/><path d="M467.58,256.08l-.35-.35a82.55,82.55,0,0,0,21.43-70.14l.21.65a232.34,232.34,0,0,1,7.66,32.39c.11.66.23,1.3.33,2q1.21,7.89,1.87,16c.08,1,.14,2,.21,3,.39,5.47.64,11,.64,16.54q0,5.85-.29,11.62c-.06,1.28-.19,2.55-.27,3.82-.17,2.56-.33,5.12-.58,7.65-.15,1.51-.36,3-.54,4.51-.27,2.28-.53,4.55-.87,6.81-.24,1.59-.52,3.15-.79,4.73-.36,2.15-.72,4.29-1.15,6.42-.32,1.61-.68,3.2-1,4.79-.45,2.06-.91,4.12-1.42,6.16-.4,1.61-.84,3.21-1.27,4.81-.54,2-1.1,4-1.69,6-.48,1.6-1,3.18-1.5,4.76q-.95,2.91-2,5.8-.83,2.35-1.72,4.67-1.08,2.85-2.23,5.65-.94,2.3-1.93,4.59c-.8,1.85-1.64,3.68-2.49,5.51-.7,1.49-1.39,3-2.12,4.46-.9,1.82-1.83,3.62-2.78,5.42-.75,1.43-1.5,2.87-2.28,4.28-1,1.81-2,3.59-3.09,5.37-.8,1.35-1.58,2.72-2.4,4.05-1.11,1.81-2.27,3.58-3.43,5.36-.83,1.26-1.63,2.54-2.48,3.79-1.26,1.85-2.57,3.65-3.88,5.46-.82,1.13-1.61,2.27-2.44,3.38-1.54,2-3.14,4-4.74,6-.66.83-1.3,1.68-2,2.49q-3.45,4.18-7.1,8.19c-.45.5-.93,1-1.38,1.46-2,2.16-4,4.31-6.09,6.39-.91.91-1.86,1.79-2.79,2.69-1.66,1.62-3.33,3.24-5,4.8-1.09,1-2.21,1.95-3.31,2.92-1.61,1.42-3.21,2.84-4.86,4.21-1.19,1-2.41,1.94-3.62,2.91-1.62,1.29-3.23,2.59-4.88,3.84-1.27,1-2.57,1.9-3.87,2.83-1.64,1.19-3.27,2.37-4.94,3.51-1.34.92-2.7,1.81-4.06,2.7-1.68,1.1-3.37,2.2-5.08,3.26-1.39.86-2.79,1.7-4.19,2.53q-2.59,1.53-5.22,3-2.16,1.2-4.35,2.36-2.65,1.4-5.34,2.74c-1.48.74-3,1.46-4.47,2.17-1.83.86-3.67,1.68-5.52,2.5-1.51.66-3,1.32-4.54,2-1.9.78-3.81,1.53-5.73,2.26-1.52.58-3,1.17-4.56,1.72-2,.71-4,1.37-6,2-1.51.5-3,1-4.54,1.48-2.09.64-4.21,1.22-6.33,1.8-1.47.4-2.92.83-4.4,1.21-2.29.58-4.61,1.09-6.93,1.6-1.34.3-2.67.63-4,.9-2.84.57-5.71,1.06-8.59,1.53-.85.14-1.69.32-2.54.45q-4.65.71-9.36,1.23c-9.65,1.07-19.64-3.19-23.79-12a21.9,21.9,0,0,1,4.21-25Z" transform="translate(-12.42 -24.25)" style="fill:#7cc78f"/></svg>